<svg xmlns="http://www.w3.org/2000/svg" width="256" height="256" viewBox="0 0 100 100"><rect width="100" height="100" rx="0" fill="#e5261f"></rect><path fill="#fff" d="M50.77 17.92L50.77 17.92L72.72 74.53Q74.07 77.95 75.78 79.07Q77.50 80.20 78.94 80.29L78.94 80.29L78.94 82.09Q77.13 81.91 74.53 81.86Q71.91 81.82 69.31 81.82L69.31 81.82Q65.80 81.82 62.73 81.86Q59.67 81.91 57.78 82.09L57.78 82.09L57.78 80.29Q62.38 80.11 63.63 78.71Q64.89 77.32 63.09 72.73L63.09 72.73L46.36 28.00L47.80 26.83L32.13 67.51Q30.24 72.37 30.34 75.11Q30.43 77.86 32.41 79.03Q34.38 80.20 38.16 80.29L38.16 80.29L38.16 82.09Q35.64 81.91 32.90 81.86Q30.16 81.82 27.82 81.82L27.82 81.82Q25.57 81.82 23.99 81.86Q22.41 81.91 21.07 82.09L21.07 82.09L21.07 80.29Q22.87 79.84 24.75 78.17Q26.64 76.51 28.18 72.46L28.18 72.46L49.33 17.92Q49.69 17.92 50.05 17.92Q50.41 17.92 50.77 17.92ZM35.83 56.17L61.74 56.17L61.74 57.97L34.92 57.97L35.83 56.17Z"></path></svg>